{"title":"Game Of Thrones S05 Season 5 1080p 5.1Ch BluRay DeeJayAhmed","uid":13838584,"size":7520079564,"categoryP":"video","categoryS":"hd___tv_shows","magnet":"?xt=urn:btih:c41f1002763d5e1a95bd56de9e0d275ad0182a18&amp;dn=Game+Of+Thrones+S05+Season+5+1080p+5.1Ch+BluRay+DeeJayAhmed&amp;tr=udp%3A%2F%2Ftracker.leechers-paradise.org%3A6969&amp;tr=udp%3A%2F%2Fzer0day.ch%3A1337&amp;tr=udp%3A%2F%2Fopen.demonii.com%3A1337&amp;tr=udp%3A%2F%2Ftracker.coppersurfer.tk%3A6969&amp;tr=udp%3A%2F%2Fexodus.desync.com%3A6969","seeders":2,"leechers":7,"uploader":"DeeJayPirate","files":30,"time":1457783543,"description":"DeeJayAhmed  \nhttps://www.DeeJayAhmed.com\r\r\nKeep Seeding!!=)) \r\nDo Comment On The A/V Quality Considering The Size Of The File..!\r\nHelp Me By Donating Bitcoins : 14i1UCWye2SCjoAHR5u6LDswWgAy55dxAv\r\n\r\nVideo \r\nID : 1 \r\nFormat : AVC \r\nFormat/Info : Advanced Video Codec \r\nFormat profile :    \r\nFormat settings, CABAC : Yes \r\nFormat settings, ReFrames : 4 frames \r\nCodec ID : V_MPEG4/ISO/AVC \r\nDuration : 52mn 11s \r\nBit rate : 1 576 Kbps \r\nWidth : 1 920 pixels \r\nHeight : 1 080 pixels \r\nDisplay aspect ratio : 16:9 \r\nFrame rate mode : Constant \r\nFrame rate : 23.976 (24000/1001) fps \r\nColor space : YUV \r\nChroma subsampling : 4:2:0 \r\nBit depth : 8 bits \r\nScan type : Progressive \r\nBits/(Pixel*Frame) : 0.032 \r\nStream size : 588 MiB (88%) \r\nDefault : Yes \r\nForced : No \r\n\r\nAudio \r\nID : 2 \r\nFormat : AAC \r\nFormat/Info : Advanced Audio Codec \r\nFormat profile : HE-AACv2 / HE-AAC / LC \r\nCodec ID : A_AAC \r\nDuration : 52mn 11s \r\nBit rate : 210 Kbps \r\nChannel(s) : 6 channels \r\nChannel positions : Front: L C R, Side: L R, LFE \r\nSampling rate : 48.0 KHz / 24.0 KHz \r\nFrame rate : 23.438 fps (1024 spf) \r\nCompression mode : Lossy \r\nCompression mode : Lossy \r\nDelay relative to video : 31ms \r\nStream size : 78.6 MiB (12%) \r\nLanguage : English \r\nDefault : Yes \r\nForced : No","torrent":{"xt":"urn:btih:c41f1002763d5e1a95bd56de9e0d275ad0182a18","amp;dn":"Game+Of+Thrones+S05+Season+5+1080p+5.1Ch+BluRay+DeeJayAhmed","amp;tr":["udp%3A%2F%2Ftracker.leechers-paradise.org%3A6969","udp%3A%2F%2Fzer0day.ch%3A1337","udp%3A%2F%2Fopen.demonii.com%3A1337","udp%3A%2F%2Ftracker.coppersurfer.tk%3A6969","udp%3A%2F%2Fexodus.desync.com%3A6969"],"infoHash":"c41f1002763d5e1a95bd56de9e0d275ad0182a18","infoHashBuffer":{"type":"Buffer","data":[196,31,16,2,118,61,94,26,149,189,86,222,158,13,39,90,208,24,42,24]},"announce":[],"urlList":[]}}